# xmcd CD database file
#
# Track frame offsets:
#	150
#	16414
#	42801
#	72171
#	96660
#	120118
#	143634
#	169876
#
# Disc length: 2610 seconds
#
# Revision: 0
# Processed by: cddbd v1.5.1PL2 Copyright (c) Steve Scherf et al.
# Submitted via: CDex 1.51
#
DISCID=640a3008
DTITLE=Mambo Kings - Marinera
DYEAR=2004
DGENRE=Jazz
TTITLE0=Softly, As In A Morning Sunrise
TTITLE1=Nature Boy
TTITLE2=Danzon
TTITLE3=Marinera
TTITLE4=Five Kings
TTITLE5=Manana De Carnaval
TTITLE6=Afro Blue
TTITLE7=From Within
EXTD=YEAR: 2004
EXTT0=
EXTT1=
EXTT2=
EXTT3=
EXTT4=
EXTT5=
EXTT6=
EXTT7=
PLAYORDER=
